<?xml version="1.0" encoding="UTF-8" standalone="no"?><!-- Generator: Gravit.io --><svg xmlns="http://www.w3.org/2000/svg" xmlns:xlink="http://www.w3.org/1999/xlink" style="isolation:isolate" viewBox="0 0 1080 1080" width="1080pt" height="1080pt"><defs><clipPath id="_clipPath_VNUb2FmnU4bFgzaMlaVLn3SVnvSkQ48E"><rect width="1080" height="1080"/></clipPath></defs><g clip-path="url(#_clipPath_VNUb2FmnU4bFgzaMlaVLn3SVnvSkQ48E)"><path d=" M 314.038 1003.094 L 314.038 1003.094 L 314.038 1003.094 Q 307.035 1003.094 302.319 1001.307 L 302.319 1001.307 L 302.319 986.945 L 302.319 986.945 Q 308.322 988.445 312.752 988.445 L 312.752 988.445 L 312.752 988.445 Q 326.757 988.445 326.757 970.724 L 326.757 970.724 L 326.757 869.471 L 343.907 869.471 L 343.907 970.153 L 343.907 970.153 Q 343.907 986.159 336.297 994.626 L 336.297 994.626 L 336.297 994.626 Q 328.687 1003.094 314.038 1003.094 Z  M 430.082 959.434 L 430.082 973.94 L 370.988 973.94 L 370.988 869.471 L 430.082 869.471 L 430.082 883.905 L 388.066 883.905 L 388.066 912.345 L 427.438 912.345 L 427.438 926.636 L 388.066 926.636 L 388.066 959.434 L 430.082 959.434 L 430.082 959.434 Z  M 512.899 973.94 L 497.822 973.94 L 467.525 886.692 L 466.953 886.692 L 466.953 886.692 Q 468.168 906.128 468.168 923.135 L 468.168 923.135 L 468.168 973.94 L 452.662 973.94 L 452.662 869.471 L 476.743 869.471 L 505.754 952.574 L 506.183 952.574 L 536.051 869.471 L 560.203 869.471 L 560.203 973.94 L 543.768 973.94 L 543.768 922.277 L 543.768 922.277 Q 543.768 914.489 544.161 901.984 L 544.161 901.984 L 544.161 901.984 Q 544.554 889.479 544.84 886.835 L 544.84 886.835 L 544.269 886.835 L 512.899 973.94 L 512.899 973.94 Z  M 604.792 973.94 L 587.714 973.94 L 587.714 869.471 L 604.792 869.471 L 604.792 973.94 L 604.792 973.94 Z  M 719.407 869.471 L 719.407 973.94 L 698.47 973.94 L 647.093 890.694 L 646.522 890.694 L 646.879 895.338 L 646.879 895.338 Q 647.879 908.629 647.879 919.633 L 647.879 919.633 L 647.879 973.94 L 632.373 973.94 L 632.373 869.471 L 653.096 869.471 L 704.329 952.289 L 704.758 952.289 L 704.758 952.289 Q 704.615 950.645 704.186 940.32 L 704.186 940.32 L 704.186 940.32 Q 703.758 929.994 703.758 924.206 L 703.758 924.206 L 703.758 869.471 L 719.407 869.471 L 719.407 869.471 Z  M 829.949 973.94 L 811.799 973.94 L 801.366 944.929 L 761.423 944.929 L 751.204 973.94 L 733.197 973.94 L 772.284 869.043 L 790.862 869.043 L 829.949 973.94 L 829.949 973.94 Z  M 766.424 930.209 L 796.865 930.209 L 787.075 901.769 L 787.075 901.769 Q 786.003 898.911 784.11 892.766 L 784.11 892.766 L 784.11 892.766 Q 782.216 886.621 781.502 883.763 L 781.502 883.763 L 781.502 883.763 Q 779.572 892.552 775.857 902.984 L 775.857 902.984 L 766.424 930.209 L 766.424 930.209 Z " fill="rgb(255,255,255)"/><g><path d=" M 678.331 223.828 C 705.503 237.971 730.369 256.225 752.097 277.953 C 779.463 305.319 801.317 337.661 816.39 373.319 C 832 410.246 840.049 449.953 840 490.051 C 840.049 530.148 832 569.856 816.39 606.782 C 801.317 642.441 779.463 674.782 752.097 702.148 C 724.732 729.514 692.39 751.368 656.732 766.441 C 636.695 774.911 615.84 781.154 594.549 785.086 L 594.549 685.044 C 602.762 682.746 610.839 679.923 618.732 676.587 C 642.78 666.392 664.634 651.66 683.122 633.173 C 701.61 614.685 716.341 592.831 726.536 568.782 C 737.073 543.856 742.488 517.075 742.439 490.051 C 742.488 463.026 737.073 436.246 726.536 411.319 C 716.341 387.27 701.61 365.417 683.122 346.929 C 681.549 345.356 679.952 343.81 678.331 342.292 L 678.331 223.828 Z " fill="rgb(161,196,34)"/><circle vector-effect="non-scaling-stroke" cx="540.0000000000039" cy="490.0507233707982" r="104.87797157820069" fill="rgb(191,70,70)"/><rect x="559.183" y="54.245" width="97.561" height="296.59" transform="matrix(0.707,-0.707,0.707,0.707,34.851,489.218)" fill="rgb(161,196,34)"/><rect x="352.524" y="225.007" width="97.561" height="96.531" transform="matrix(-0.707,-0.707,0.707,-0.707,491.838,750.27)" fill="rgb(5,164,219)"/><path d=" M 322.25 283.759 C 297.517 309.853 277.63 340.151 263.61 373.319 C 248 410.246 239.951 449.953 240 490.051 L 240 490.051 C 239.951 530.148 248 569.856 263.61 606.782 C 278.683 642.441 300.537 674.782 327.902 702.148 C 355.268 729.514 387.61 751.368 423.268 766.441 C 443.305 774.91 464.16 781.154 485.451 785.086 L 485.451 685.044 C 477.239 682.746 469.161 679.923 461.268 676.587 C 437.22 666.392 415.366 651.66 396.878 633.173 C 378.39 614.685 363.659 592.831 353.464 568.782 C 342.927 543.856 337.512 517.075 337.561 490.051 L 337.561 490.051 C 337.512 462.978 342.927 436.197 353.464 411.27 C 362.604 389.753 375.392 369.96 391.263 352.772 L 322.25 283.759 Z " fill="rgb(5,164,219)"/></g></g></svg>