<?xml version="1.0" encoding="UTF-8" standalone="no"?><!-- Generator: Gravit.io --><svg xmlns="http://www.w3.org/2000/svg" xmlns:xlink="http://www.w3.org/1999/xlink" style="isolation:isolate" viewBox="0 0 1080 540" width="1080pt" height="540pt"><defs><clipPath id="_clipPath_TnqyOcjMOhlYpJnQfFG0vqAa6FuYYHST"><rect width="1080" height="540"/></clipPath></defs><g clip-path="url(#_clipPath_TnqyOcjMOhlYpJnQfFG0vqAa6FuYYHST)"><g><path d=" M 298.659 383.826 L 298.659 383.826 L 298.659 383.826 Q 289.383 383.826 283.135 381.459 L 283.135 381.459 L 283.135 362.433 L 283.135 362.433 Q 291.087 364.421 296.955 364.421 L 296.955 364.421 L 296.955 364.421 Q 315.508 364.421 315.508 340.946 L 315.508 340.946 L 315.508 206.816 L 338.226 206.816 L 338.226 340.189 L 338.226 340.189 Q 338.226 361.392 328.145 372.609 L 328.145 372.609 L 328.145 372.609 Q 318.064 383.826 298.659 383.826 Z  M 452.383 325.99 L 452.383 345.205 L 374.101 345.205 L 374.101 206.816 L 452.383 206.816 L 452.383 225.937 L 396.724 225.937 L 396.724 263.611 L 448.881 263.611 L 448.881 282.542 L 396.724 282.542 L 396.724 325.99 L 452.383 325.99 L 452.383 325.99 Z  M 562.091 345.205 L 542.118 345.205 L 501.984 229.629 L 501.226 229.629 L 501.226 229.629 Q 502.836 255.375 502.836 277.904 L 502.836 277.904 L 502.836 345.205 L 482.295 345.205 L 482.295 206.816 L 514.194 206.816 L 552.625 316.903 L 553.193 316.903 L 592.76 206.816 L 624.755 206.816 L 624.755 345.205 L 602.983 345.205 L 602.983 276.768 L 602.983 276.768 Q 602.983 266.45 603.504 249.885 L 603.504 249.885 L 603.504 249.885 Q 604.025 233.32 604.403 229.818 L 604.403 229.818 L 603.646 229.818 L 562.091 345.205 L 562.091 345.205 Z  M 683.821 345.205 L 661.198 345.205 L 661.198 206.816 L 683.821 206.816 L 683.821 345.205 L 683.821 345.205 Z  M 835.652 206.816 L 835.652 345.205 L 807.917 345.205 L 739.858 234.929 L 739.101 234.929 L 739.574 241.082 L 739.574 241.082 Q 740.899 258.688 740.899 273.266 L 740.899 273.266 L 740.899 345.205 L 720.359 345.205 L 720.359 206.816 L 747.809 206.816 L 815.679 316.524 L 816.247 316.524 L 816.247 316.524 Q 816.058 314.347 815.49 300.669 L 815.49 300.669 L 815.49 300.669 Q 814.922 286.991 814.922 279.324 L 814.922 279.324 L 814.922 206.816 L 835.652 206.816 L 835.652 206.816 Z  M 982.087 345.205 L 958.044 345.205 L 944.224 306.774 L 891.31 306.774 L 877.774 345.205 L 853.921 345.205 L 905.698 206.248 L 930.309 206.248 L 982.087 345.205 L 982.087 345.205 Z  M 897.936 287.275 L 938.26 287.275 L 925.292 249.601 L 925.292 249.601 Q 923.872 245.815 921.364 237.674 L 921.364 237.674 L 921.364 237.674 Q 918.856 229.534 917.909 225.748 L 917.909 225.748 L 917.909 225.748 Q 915.353 237.39 910.431 251.21 L 910.431 251.21 L 897.936 287.275 L 897.936 287.275 Z " fill="rgb(255,255,255)"/><path d=" M 872.803 361.193 L 872.803 388.871 L 870.853 388.871 L 854.459 364.298 L 854.307 364.298 L 854.307 364.298 Q 854.534 368.69 854.534 370.924 L 854.534 370.924 L 854.534 388.871 L 852.679 388.871 L 852.679 361.193 L 854.61 361.193 L 870.986 385.729 L 871.099 385.729 L 871.099 385.729 Q 870.929 382.321 870.929 379.254 L 870.929 379.254 L 870.929 361.193 L 872.803 361.193 L 872.803 361.193 Z  M 896.96 387.092 L 896.96 388.871 L 881.834 388.871 L 881.834 361.193 L 896.96 361.193 L 896.96 362.973 L 883.765 362.973 L 883.765 373.442 L 896.222 373.442 L 896.222 375.222 L 883.765 375.222 L 883.765 387.092 L 896.96 387.092 L 896.96 387.092 Z  M 915.305 376.736 L 915.305 374.919 L 925.509 374.919 L 925.509 387.546 L 925.509 387.546 Q 921.496 389.25 916.479 389.25 L 916.479 389.25 L 916.479 389.25 Q 909.929 389.25 906.436 385.549 L 906.436 385.549 L 906.436 385.549 Q 902.943 381.848 902.943 375.07 L 902.943 375.07 L 902.943 375.07 Q 902.943 370.849 904.675 367.583 L 904.675 367.583 L 904.675 367.583 Q 906.407 364.317 909.635 362.538 L 909.635 362.538 L 909.635 362.538 Q 912.863 360.758 917.047 360.758 L 917.047 360.758 L 917.047 360.758 Q 921.571 360.758 925.168 362.424 L 925.168 362.424 L 924.392 364.166 L 924.392 364.166 Q 920.795 362.5 916.933 362.5 L 916.933 362.5 L 916.933 362.5 Q 911.462 362.5 908.253 365.879 L 908.253 365.879 L 908.253 365.879 Q 905.044 369.258 905.044 374.995 L 905.044 374.995 L 905.044 374.995 Q 905.044 381.242 908.092 384.394 L 908.092 384.394 L 908.092 384.394 Q 911.14 387.546 917.047 387.546 L 917.047 387.546 L 917.047 387.546 Q 920.871 387.546 923.54 386.467 L 923.54 386.467 L 923.54 376.736 L 915.305 376.736 L 915.305 376.736 Z  M 950.821 388.871 L 946.978 379.103 L 935.733 379.103 L 931.87 388.871 L 929.731 388.871 L 940.863 361.08 L 942.093 361.08 L 952.998 388.871 L 950.821 388.871 L 950.821 388.871 Z  M 940.314 367.422 L 936.433 377.361 L 946.334 377.361 L 942.567 367.384 L 942.567 367.384 Q 942.093 366.21 941.431 364.128 L 941.431 364.128 L 941.431 364.128 Q 940.92 365.945 940.314 367.422 L 940.314 367.422 L 940.314 367.422 Z  M 966.913 376.812 L 960.041 376.812 L 960.041 388.871 L 958.11 388.871 L 958.11 361.193 L 964.698 361.193 L 964.698 361.193 Q 969.847 361.193 972.308 363.096 L 972.308 363.096 L 972.308 363.096 Q 974.77 364.999 974.77 368.823 L 974.77 368.823 L 974.77 368.823 Q 974.77 371.606 973.302 373.518 L 973.302 373.518 L 973.302 373.518 Q 971.835 375.43 968.844 376.263 L 968.844 376.263 L 976.36 388.871 L 974.05 388.871 L 966.913 376.812 L 966.913 376.812 Z  M 960.041 362.935 L 960.041 375.146 L 965.323 375.146 L 965.323 375.146 Q 968.825 375.146 970.756 373.584 L 970.756 373.584 L 970.756 373.584 Q 972.687 372.022 972.687 368.974 L 972.687 368.974 L 972.687 368.974 Q 972.687 365.813 970.794 364.374 L 970.794 364.374 L 970.794 364.374 Q 968.901 362.935 964.622 362.935 L 964.622 362.935 L 960.041 362.935 L 960.041 362.935 Z  M 999.513 388.871 L 995.67 379.103 L 984.425 379.103 L 980.563 388.871 L 978.424 388.871 L 989.555 361.08 L 990.786 361.08 L 1001.69 388.871 L 999.513 388.871 L 999.513 388.871 Z  M 989.006 367.422 L 985.125 377.361 L 995.027 377.361 L 991.259 367.384 L 991.259 367.384 Q 990.786 366.21 990.123 364.128 L 990.123 364.128 L 990.123 364.128 Q 989.612 365.945 989.006 367.422 L 989.006 367.422 L 989.006 367.422 Z  M 710.217 388.871 L 708.987 388.871 L 698.669 363.314 L 698.518 363.314 L 698.518 363.314 Q 698.669 365.661 698.669 368.122 L 698.669 368.122 L 698.669 388.871 L 696.814 388.871 L 696.814 361.193 L 699.805 361.193 L 709.612 385.539 L 709.725 385.539 L 719.532 361.193 L 722.447 361.193 L 722.447 388.871 L 720.497 388.871 L 720.497 367.895 L 720.497 367.895 Q 720.497 365.699 720.724 363.352 L 720.724 363.352 L 720.573 363.352 L 710.217 388.871 L 710.217 388.871 Z  M 733.39 388.871 L 731.459 388.871 L 731.459 361.193 L 733.39 361.193 L 733.39 388.871 L 733.39 388.871 Z  M 762.545 361.193 L 762.545 388.871 L 760.595 388.871 L 744.2 364.298 L 744.049 364.298 L 744.049 364.298 Q 744.276 368.69 744.276 370.924 L 744.276 370.924 L 744.276 388.871 L 742.42 388.871 L 742.42 361.193 L 744.351 361.193 L 760.727 385.729 L 760.841 385.729 L 760.841 385.729 Q 760.67 382.321 760.67 379.254 L 760.67 379.254 L 760.67 361.193 L 762.545 361.193 L 762.545 361.193 Z  M 769.871 361.193 L 777.936 376.339 L 786.039 361.193 L 788.121 361.193 L 778.902 378.175 L 778.902 388.871 L 776.914 388.871 L 776.914 378.326 L 767.656 361.193 L 769.871 361.193 L 769.871 361.193 Z  M 810.404 388.871 L 806.561 379.103 L 795.316 379.103 L 791.454 388.871 L 789.314 388.871 L 800.446 361.08 L 801.677 361.08 L 812.581 388.871 L 810.404 388.871 L 810.404 388.871 Z  M 799.897 367.422 L 796.016 377.361 L 805.917 377.361 L 802.15 367.384 L 802.15 367.384 Q 801.677 366.21 801.014 364.128 L 801.014 364.128 L 801.014 364.128 Q 800.503 365.945 799.897 367.422 L 799.897 367.422 L 799.897 367.422 Z  M 824.66 372.893 L 836.303 388.871 L 833.936 388.871 L 823.316 374.256 L 819.624 377.512 L 819.624 388.871 L 817.693 388.871 L 817.693 361.193 L 819.624 361.193 L 819.624 375.581 L 822.691 372.515 L 833.539 361.193 L 836 361.193 L 824.66 372.893 L 824.66 372.893 Z  M 561.925 387.092 L 561.925 388.871 L 546.798 388.871 L 546.798 361.193 L 561.925 361.193 L 561.925 362.973 L 548.729 362.973 L 548.729 373.442 L 561.186 373.442 L 561.186 375.222 L 548.729 375.222 L 548.729 387.092 L 561.925 387.092 L 561.925 387.092 Z  M 589.508 361.193 L 589.508 388.871 L 587.558 388.871 L 571.164 364.298 L 571.012 364.298 L 571.012 364.298 Q 571.239 368.69 571.239 370.924 L 571.239 370.924 L 571.239 388.871 L 569.384 388.871 L 569.384 361.193 L 571.315 361.193 L 587.691 385.729 L 587.804 385.729 L 587.804 385.729 Q 587.634 382.321 587.634 379.254 L 587.634 379.254 L 587.634 361.193 L 589.508 361.193 L 589.508 361.193 Z  M 613.665 387.092 L 613.665 388.871 L 598.539 388.871 L 598.539 361.193 L 613.665 361.193 L 613.665 362.973 L 600.47 362.973 L 600.47 373.442 L 612.927 373.442 L 612.927 375.222 L 600.47 375.222 L 600.47 387.092 L 613.665 387.092 L 613.665 387.092 Z  M 629.928 376.812 L 623.055 376.812 L 623.055 388.871 L 621.124 388.871 L 621.124 361.193 L 627.713 361.193 L 627.713 361.193 Q 632.862 361.193 635.323 363.096 L 635.323 363.096 L 635.323 363.096 Q 637.784 364.999 637.784 368.823 L 637.784 368.823 L 637.784 368.823 Q 637.784 371.606 636.317 373.518 L 636.317 373.518 L 636.317 373.518 Q 634.85 375.43 631.859 376.263 L 631.859 376.263 L 639.374 388.871 L 637.065 388.871 L 629.928 376.812 L 629.928 376.812 Z  M 623.055 362.935 L 623.055 375.146 L 628.337 375.146 L 628.337 375.146 Q 631.84 375.146 633.771 373.584 L 633.771 373.584 L 633.771 373.584 Q 635.702 372.022 635.702 368.974 L 635.702 368.974 L 635.702 368.974 Q 635.702 365.813 633.809 364.374 L 633.809 364.374 L 633.809 364.374 Q 631.915 362.935 627.637 362.935 L 627.637 362.935 L 623.055 362.935 L 623.055 362.935 Z  M 656.243 376.736 L 656.243 374.919 L 666.447 374.919 L 666.447 387.546 L 666.447 387.546 Q 662.433 389.25 657.416 389.25 L 657.416 389.25 L 657.416 389.25 Q 650.866 389.25 647.373 385.549 L 647.373 385.549 L 647.373 385.549 Q 643.88 381.848 643.88 375.07 L 643.88 375.07 L 643.88 375.07 Q 643.88 370.849 645.613 367.583 L 645.613 367.583 L 645.613 367.583 Q 647.345 364.317 650.573 362.538 L 650.573 362.538 L 650.573 362.538 Q 653.801 360.758 657.984 360.758 L 657.984 360.758 L 657.984 360.758 Q 662.509 360.758 666.106 362.424 L 666.106 362.424 L 665.33 364.166 L 665.33 364.166 Q 661.733 362.5 657.871 362.5 L 657.871 362.5 L 657.871 362.5 Q 652.4 362.5 649.191 365.879 L 649.191 365.879 L 649.191 365.879 Q 645.982 369.258 645.982 374.995 L 645.982 374.995 L 645.982 374.995 Q 645.982 381.242 649.03 384.394 L 649.03 384.394 L 649.03 384.394 Q 652.078 387.546 657.984 387.546 L 657.984 387.546 L 657.984 387.546 Q 661.809 387.546 664.478 386.467 L 664.478 386.467 L 664.478 376.736 L 656.243 376.736 L 656.243 376.736 Z  M 676.519 388.871 L 674.588 388.871 L 674.588 361.193 L 676.519 361.193 L 676.519 388.871 L 676.519 388.871 Z  M 347.882 395.857 L 347.882 395.857 L 347.882 395.857 Q 346.141 395.857 345.024 395.346 L 345.024 395.346 L 345.024 393.68 L 345.024 393.68 Q 346.5 394.059 347.845 394.059 L 347.845 394.059 L 347.845 394.059 Q 352.426 394.059 352.426 389.061 L 352.426 389.061 L 352.426 361.193 L 354.357 361.193 L 354.357 388.871 L 354.357 388.871 Q 354.357 395.857 347.882 395.857 Z  M 378.325 387.092 L 378.325 388.871 L 363.198 388.871 L 363.198 361.193 L 378.325 361.193 L 378.325 362.973 L 365.129 362.973 L 365.129 373.442 L 377.586 373.442 L 377.586 375.222 L 365.129 375.222 L 365.129 387.092 L 378.325 387.092 L 378.325 387.092 Z  M 400.91 388.871 L 385.784 388.871 L 385.784 361.193 L 387.715 361.193 L 387.715 387.054 L 400.91 387.054 L 400.91 388.871 L 400.91 388.871 Z  M 424.045 388.871 L 420.202 379.103 L 408.956 379.103 L 405.094 388.871 L 402.955 388.871 L 414.087 361.08 L 415.317 361.08 L 426.222 388.871 L 424.045 388.871 L 424.045 388.871 Z  M 413.538 367.422 L 409.657 377.361 L 419.558 377.361 L 415.791 367.384 L 415.791 367.384 Q 415.317 366.21 414.655 364.128 L 414.655 364.128 L 414.655 364.128 Q 414.144 365.945 413.538 367.422 L 413.538 367.422 L 413.538 367.422 Z  M 451.458 361.193 L 451.458 388.871 L 449.508 388.871 L 433.113 364.298 L 432.962 364.298 L 432.962 364.298 Q 433.189 368.69 433.189 370.924 L 433.189 370.924 L 433.189 388.871 L 431.334 388.871 L 431.334 361.193 L 433.265 361.193 L 449.64 385.729 L 449.754 385.729 L 449.754 385.729 Q 449.584 382.321 449.584 379.254 L 449.584 379.254 L 449.584 361.193 L 451.458 361.193 L 451.458 361.193 Z  M 467.701 363.011 L 467.701 388.871 L 465.751 388.871 L 465.751 363.011 L 456.759 363.011 L 456.759 361.193 L 476.694 361.193 L 476.694 363.011 L 467.701 363.011 L 467.701 363.011 Z  M 499.166 388.871 L 495.323 379.103 L 484.077 379.103 L 480.215 388.871 L 478.076 388.871 L 489.208 361.08 L 490.438 361.08 L 501.343 388.871 L 499.166 388.871 L 499.166 388.871 Z  M 488.659 367.422 L 484.778 377.361 L 494.679 377.361 L 490.912 367.384 L 490.912 367.384 Q 490.438 366.21 489.776 364.128 L 489.776 364.128 L 489.776 364.128 Q 489.265 365.945 488.659 367.422 L 488.659 367.422 L 488.659 367.422 Z  M 526.503 361.193 L 526.503 388.871 L 524.553 388.871 L 524.553 375.26 L 508.386 375.26 L 508.386 388.871 L 506.455 388.871 L 506.455 361.193 L 508.386 361.193 L 508.386 373.48 L 524.553 373.48 L 524.553 361.193 L 526.503 361.193 L 526.503 361.193 Z " fill="rgb(249,189,189)"/><g><path d=" M 215.267 216.099 C 224.181 220.739 232.339 226.727 239.467 233.856 C 248.445 242.834 255.615 253.444 260.56 265.142 C 265.681 277.257 268.321 290.284 268.305 303.438 C 268.321 316.593 265.681 329.62 260.56 341.734 C 255.615 353.433 248.445 364.043 239.467 373.021 C 230.489 381.999 219.879 389.168 208.181 394.113 C 201.607 396.892 194.766 398.94 187.78 400.23 L 187.78 367.41 C 190.475 366.656 193.125 365.73 195.714 364.635 C 203.604 361.29 210.773 356.457 216.839 350.392 C 222.904 344.327 227.737 337.157 231.081 329.268 C 234.538 321.09 236.315 312.304 236.299 303.438 C 236.315 294.573 234.538 285.787 231.081 277.609 C 227.737 269.719 222.904 262.55 216.839 256.485 C 216.323 255.969 215.799 255.461 215.267 254.963 L 215.267 216.099 Z " fill="rgb(161,196,34)"/><circle vector-effect="non-scaling-stroke" cx="169.88475437990746" cy="303.43836002619594" r="34.407171533244195" fill="rgb(191,70,70)"/><rect x="176.178" y="160.464" width="32.007" height="97.302" transform="matrix(0.707,-0.707,0.707,0.707,-91.578,197.141)" fill="rgb(161,196,34)"/><rect x="108.38" y="216.486" width="32.007" height="31.669" transform="matrix(-0.707,-0.707,0.707,-0.707,48.06,484.547)" fill="rgb(5,164,219)"/><path d=" M 98.448 235.761 C 90.334 244.321 83.809 254.261 79.21 265.142 C 74.089 277.257 71.448 290.284 71.464 303.438 L 71.464 303.438 C 71.448 316.593 74.089 329.62 79.21 341.734 C 84.155 353.433 91.324 364.043 100.302 373.021 C 109.28 381.999 119.89 389.168 131.589 394.113 C 138.162 396.892 145.004 398.94 151.989 400.23 L 151.989 367.41 C 149.295 366.656 146.645 365.73 144.055 364.635 C 136.166 361.29 128.996 356.457 122.931 350.392 C 116.866 344.327 112.033 337.157 108.688 329.268 C 105.231 321.09 103.455 312.304 103.471 303.438 L 103.471 303.438 C 103.455 294.557 105.231 285.771 108.688 277.593 C 111.687 270.534 115.882 264.04 121.089 258.402 L 98.448 235.761 Z " fill="rgb(5,164,219)"/></g></g></g></svg>