<svg id="visual" viewBox="0 0 1280 768" width="1280" height="768" xmlns="http://www.w3.org/2000/svg" xmlns:xlink="http://www.w3.org/1999/xlink" version="1.1"><rect x="0" y="0" width="1280" height="768" fill="#FFFFFF"></rect><defs><linearGradient id="grad1_0" x1="40%" y1="100%" x2="100%" y2="0%"><stop offset="16.666666666666664%" stop-color="#198754" stop-opacity="1"></stop><stop offset="83.33333333333334%" stop-color="#198754" stop-opacity="1"></stop></linearGradient></defs><defs><linearGradient id="grad1_1" x1="40%" y1="100%" x2="100%" y2="0%"><stop offset="16.666666666666664%" stop-color="#198754" stop-opacity="1"></stop><stop offset="83.33333333333334%" stop-color="#539f74" stop-opacity="1"></stop></linearGradient></defs><defs><linearGradient id="grad1_2" x1="40%" y1="100%" x2="100%" y2="0%"><stop offset="16.666666666666664%" stop-color="#80b795" stop-opacity="1"></stop><stop offset="83.33333333333334%" stop-color="#539f74" stop-opacity="1"></stop></linearGradient></defs><defs><linearGradient id="grad1_3" x1="40%" y1="100%" x2="100%" y2="0%"><stop offset="16.666666666666664%" stop-color="#80b795" stop-opacity="1"></stop><stop offset="83.33333333333334%" stop-color="#aacfb7" stop-opacity="1"></stop></linearGradient></defs><defs><linearGradient id="grad1_4" x1="40%" y1="100%" x2="100%" y2="0%"><stop offset="16.666666666666664%" stop-color="#d4e7db" stop-opacity="1"></stop><stop offset="83.33333333333334%" stop-color="#aacfb7" stop-opacity="1"></stop></linearGradient></defs><defs><linearGradient id="grad1_5" x1="40%" y1="100%" x2="100%" y2="0%"><stop offset="16.666666666666664%" stop-color="#d4e7db" stop-opacity="1"></stop><stop offset="83.33333333333334%" stop-color="#ffffff" stop-opacity="1"></stop></linearGradient></defs><defs><linearGradient id="grad2_0" x1="0%" y1="100%" x2="60%" y2="0%"><stop offset="16.666666666666664%" stop-color="#198754" stop-opacity="1"></stop><stop offset="83.33333333333334%" stop-color="#198754" stop-opacity="1"></stop></linearGradient></defs><defs><linearGradient id="grad2_1" x1="0%" y1="100%" x2="60%" y2="0%"><stop offset="16.666666666666664%" stop-color="#539f74" stop-opacity="1"></stop><stop offset="83.33333333333334%" stop-color="#198754" stop-opacity="1"></stop></linearGradient></defs><defs><linearGradient id="grad2_2" x1="0%" y1="100%" x2="60%" y2="0%"><stop offset="16.666666666666664%" stop-color="#539f74" stop-opacity="1"></stop><stop offset="83.33333333333334%" stop-color="#80b795" stop-opacity="1"></stop></linearGradient></defs><defs><linearGradient id="grad2_3" x1="0%" y1="100%" x2="60%" y2="0%"><stop offset="16.666666666666664%" stop-color="#aacfb7" stop-opacity="1"></stop><stop offset="83.33333333333334%" stop-color="#80b795" stop-opacity="1"></stop></linearGradient></defs><defs><linearGradient id="grad2_4" x1="0%" y1="100%" x2="60%" y2="0%"><stop offset="16.666666666666664%" stop-color="#aacfb7" stop-opacity="1"></stop><stop offset="83.33333333333334%" stop-color="#d4e7db" stop-opacity="1"></stop></linearGradient></defs><defs><linearGradient id="grad2_5" x1="0%" y1="100%" x2="60%" y2="0%"><stop offset="16.666666666666664%" stop-color="#ffffff" stop-opacity="1"></stop><stop offset="83.33333333333334%" stop-color="#d4e7db" stop-opacity="1"></stop></linearGradient></defs><g transform="translate(1280, 768)"><path d="M-447.8 0C-438.4 -38.7 -429.1 -77.4 -412.5 -110.5C-395.8 -143.6 -372 -171.2 -357.7 -206.5C-343.4 -241.8 -338.6 -285 -316.7 -316.7C-294.7 -348.3 -255.4 -368.4 -216.5 -375C-177.6 -381.6 -139 -374.6 -103 -384.4C-67 -394.3 -33.5 -421.1 0 -447.8L0 0Z" fill="#eaf3ed"></path><path d="M-373.2 0C-365.4 -32.3 -357.6 -64.5 -343.7 -92.1C-329.9 -119.7 -310 -142.6 -298.1 -172.1C-286.1 -201.5 -282.2 -237.5 -263.9 -263.9C-245.6 -290.2 -212.8 -307 -180.4 -312.5C-148 -318 -115.9 -312.1 -85.8 -320.4C-55.8 -328.6 -27.9 -350.9 0 -373.2L0 0Z" fill="#bfdbc9"></path><path d="M-298.5 0C-292.3 -25.8 -286 -51.6 -275 -73.7C-263.9 -95.8 -248 -114.1 -238.4 -137.7C-228.9 -161.2 -225.8 -190 -211.1 -211.1C-196.4 -232.2 -170.3 -245.6 -144.3 -250C-118.4 -254.4 -92.7 -249.7 -68.7 -256.3C-44.7 -262.9 -22.3 -280.7 0 -298.5L0 0Z" fill="#95c3a6"></path><path d="M-223.9 0C-219.2 -19.4 -214.5 -38.7 -206.2 -55.3C-197.9 -71.8 -186 -85.6 -178.8 -103.3C-171.7 -120.9 -169.3 -142.5 -158.3 -158.3C-147.3 -174.1 -127.7 -184.2 -108.3 -187.5C-88.8 -190.8 -69.5 -187.3 -51.5 -192.2C-33.5 -197.2 -16.7 -210.5 0 -223.9L0 0Z" fill="#6aab84"></path><path d="M-149.3 0C-146.1 -12.9 -143 -25.8 -137.5 -36.8C-131.9 -47.9 -124 -57.1 -119.2 -68.8C-114.5 -80.6 -112.9 -95 -105.6 -105.6C-98.2 -116.1 -85.1 -122.8 -72.2 -125C-59.2 -127.2 -46.3 -124.9 -34.3 -128.1C-22.3 -131.4 -11.2 -140.4 0 -149.3L0 0Z" fill="#3a9364"></path><path d="M-74.6 0C-73.1 -6.5 -71.5 -12.9 -68.7 -18.4C-66 -23.9 -62 -28.5 -59.6 -34.4C-57.2 -40.3 -56.4 -47.5 -52.8 -52.8C-49.1 -58 -42.6 -61.4 -36.1 -62.5C-29.6 -63.6 -23.2 -62.4 -17.2 -64.1C-11.2 -65.7 -5.6 -70.2 0 -74.6L0 0Z" fill="#198754"></path></g><g transform="translate(0, 0)"><path d="M447.8 0C449.4 41.7 450.9 83.4 432.6 115.9C414.2 148.4 376 171.7 355.9 205.5C335.9 239.3 334.1 283.7 311.8 311.8C289.5 340 246.7 351.9 209.5 362.9C172.3 373.9 140.6 384 106.6 398C72.6 412 36.3 429.9 0 447.8L0 0Z" fill="#eaf3ed"></path><path d="M373.2 0C374.5 34.8 375.8 69.5 360.5 96.6C345.2 123.7 313.3 143.1 296.6 171.2C279.9 199.4 278.4 236.4 259.9 259.9C241.3 283.3 205.6 293.2 174.6 302.4C143.6 311.6 117.2 320 88.9 331.6C60.5 343.3 30.3 358.2 0 373.2L0 0Z" fill="#bfdbc9"></path><path d="M298.5 0C299.6 27.8 300.6 55.6 288.4 77.3C276.1 98.9 250.6 114.4 237.3 137C223.9 159.6 222.8 189.1 207.9 207.9C193 226.6 164.5 234.6 139.7 241.9C114.8 249.2 93.7 256 71.1 265.3C48.4 274.6 24.2 286.6 0 298.5L0 0Z" fill="#95c3a6"></path><path d="M223.9 0C224.7 20.9 225.5 41.7 216.3 58C207.1 74.2 188 85.8 178 102.7C168 119.7 167.1 141.8 155.9 155.9C144.8 170 123.4 175.9 104.8 181.4C86.1 186.9 70.3 192 53.3 199C36.3 206 18.2 214.9 0 223.9L0 0Z" fill="#6aab84"></path><path d="M149.3 0C149.8 13.9 150.3 27.8 144.2 38.6C138.1 49.5 125.3 57.2 118.6 68.5C112 79.8 111.4 94.6 103.9 103.9C96.5 113.3 82.2 117.3 69.8 121C57.4 124.6 46.9 128 35.5 132.7C24.2 137.3 12.1 143.3 0 149.3L0 0Z" fill="#3a9364"></path><path d="M74.6 0C74.9 7 75.2 13.9 72.1 19.3C69 24.7 62.7 28.6 59.3 34.2C56 39.9 55.7 47.3 52 52C48.3 56.7 41.1 58.6 34.9 60.5C28.7 62.3 23.4 64 17.8 66.3C12.1 68.7 6.1 71.6 0 74.6L0 0Z" fill="#198754"></path></g></svg>