<svg id="visual" viewBox="0 0 1280 768" width="1280" height="768" xmlns="http://www.w3.org/2000/svg" xmlns:xlink="http://www.w3.org/1999/xlink" version="1.1"><rect x="0" y="0" width="1280" height="768" fill="#FFFFFF"></rect><defs><linearGradient id="grad1_0" x1="40%" y1="0%" x2="100%" y2="100%"><stop offset="16.666666666666664%" stop-color="#198754" stop-opacity="1"></stop><stop offset="83.33333333333334%" stop-color="#198754" stop-opacity="1"></stop></linearGradient></defs><defs><linearGradient id="grad1_1" x1="40%" y1="0%" x2="100%" y2="100%"><stop offset="16.666666666666664%" stop-color="#198754" stop-opacity="1"></stop><stop offset="83.33333333333334%" stop-color="#539f74" stop-opacity="1"></stop></linearGradient></defs><defs><linearGradient id="grad1_2" x1="40%" y1="0%" x2="100%" y2="100%"><stop offset="16.666666666666664%" stop-color="#80b795" stop-opacity="1"></stop><stop offset="83.33333333333334%" stop-color="#539f74" stop-opacity="1"></stop></linearGradient></defs><defs><linearGradient id="grad1_3" x1="40%" y1="0%" x2="100%" y2="100%"><stop offset="16.666666666666664%" stop-color="#80b795" stop-opacity="1"></stop><stop offset="83.33333333333334%" stop-color="#aacfb7" stop-opacity="1"></stop></linearGradient></defs><defs><linearGradient id="grad1_4" x1="40%" y1="0%" x2="100%" y2="100%"><stop offset="16.666666666666664%" stop-color="#d4e7db" stop-opacity="1"></stop><stop offset="83.33333333333334%" stop-color="#aacfb7" stop-opacity="1"></stop></linearGradient></defs><defs><linearGradient id="grad1_5" x1="40%" y1="0%" x2="100%" y2="100%"><stop offset="16.666666666666664%" stop-color="#d4e7db" stop-opacity="1"></stop><stop offset="83.33333333333334%" stop-color="#ffffff" stop-opacity="1"></stop></linearGradient></defs><defs><linearGradient id="grad2_0" x1="0%" y1="0%" x2="60%" y2="100%"><stop offset="16.666666666666664%" stop-color="#198754" stop-opacity="1"></stop><stop offset="83.33333333333334%" stop-color="#198754" stop-opacity="1"></stop></linearGradient></defs><defs><linearGradient id="grad2_1" x1="0%" y1="0%" x2="60%" y2="100%"><stop offset="16.666666666666664%" stop-color="#539f74" stop-opacity="1"></stop><stop offset="83.33333333333334%" stop-color="#198754" stop-opacity="1"></stop></linearGradient></defs><defs><linearGradient id="grad2_2" x1="0%" y1="0%" x2="60%" y2="100%"><stop offset="16.666666666666664%" stop-color="#539f74" stop-opacity="1"></stop><stop offset="83.33333333333334%" stop-color="#80b795" stop-opacity="1"></stop></linearGradient></defs><defs><linearGradient id="grad2_3" x1="0%" y1="0%" x2="60%" y2="100%"><stop offset="16.666666666666664%" stop-color="#aacfb7" stop-opacity="1"></stop><stop offset="83.33333333333334%" stop-color="#80b795" stop-opacity="1"></stop></linearGradient></defs><defs><linearGradient id="grad2_4" x1="0%" y1="0%" x2="60%" y2="100%"><stop offset="16.666666666666664%" stop-color="#aacfb7" stop-opacity="1"></stop><stop offset="83.33333333333334%" stop-color="#d4e7db" stop-opacity="1"></stop></linearGradient></defs><defs><linearGradient id="grad2_5" x1="0%" y1="0%" x2="60%" y2="100%"><stop offset="16.666666666666664%" stop-color="#ffffff" stop-opacity="1"></stop><stop offset="83.33333333333334%" stop-color="#d4e7db" stop-opacity="1"></stop></linearGradient></defs><g transform="translate(1280, 0)"><path d="M0 447.8C-38.7 438.4 -77.4 429.1 -110.5 412.5C-143.6 395.8 -171.2 372 -206.5 357.7C-241.8 343.4 -285 338.6 -316.7 316.7C-348.3 294.7 -368.4 255.4 -375 216.5C-381.6 177.6 -374.6 139 -384.4 103C-394.3 67 -421.1 33.5 -447.8 0L0 0Z" fill="#eaf3ed"></path><path d="M0 373.2C-32.3 365.4 -64.5 357.6 -92.1 343.7C-119.7 329.9 -142.6 310 -172.1 298.1C-201.5 286.1 -237.5 282.2 -263.9 263.9C-290.2 245.6 -307 212.8 -312.5 180.4C-318 148 -312.1 115.9 -320.4 85.8C-328.6 55.8 -350.9 27.9 -373.2 0L0 0Z" fill="#bfdbc9"></path><path d="M0 298.5C-25.8 292.3 -51.6 286 -73.7 275C-95.8 263.9 -114.1 248 -137.7 238.4C-161.2 228.9 -190 225.8 -211.1 211.1C-232.2 196.4 -245.6 170.3 -250 144.3C-254.4 118.4 -249.7 92.7 -256.3 68.7C-262.9 44.7 -280.7 22.3 -298.5 0L0 0Z" fill="#95c3a6"></path><path d="M0 223.9C-19.4 219.2 -38.7 214.5 -55.3 206.2C-71.8 197.9 -85.6 186 -103.2 178.8C-120.9 171.7 -142.5 169.3 -158.3 158.3C-174.1 147.3 -184.2 127.7 -187.5 108.3C-190.8 88.8 -187.3 69.5 -192.2 51.5C-197.2 33.5 -210.5 16.7 -223.9 0L0 0Z" fill="#6aab84"></path><path d="M0 149.3C-12.9 146.1 -25.8 143 -36.8 137.5C-47.9 131.9 -57.1 124 -68.8 119.2C-80.6 114.5 -95 112.9 -105.6 105.6C-116.1 98.2 -122.8 85.1 -125 72.2C-127.2 59.2 -124.9 46.3 -128.1 34.3C-131.4 22.3 -140.4 11.2 -149.3 0L0 0Z" fill="#3a9364"></path><path d="M0 74.6C-6.5 73.1 -12.9 71.5 -18.4 68.7C-23.9 66 -28.5 62 -34.4 59.6C-40.3 57.2 -47.5 56.4 -52.8 52.8C-58 49.1 -61.4 42.6 -62.5 36.1C-63.6 29.6 -62.4 23.2 -64.1 17.2C-65.7 11.2 -70.2 5.6 -74.6 0L0 0Z" fill="#198754"></path></g><g transform="translate(0, 768)"><path d="M0 -447.8C41.7 -449.4 83.4 -450.9 115.9 -432.6C148.4 -414.2 171.7 -376 205.5 -355.9C239.3 -335.9 283.7 -334.1 311.8 -311.8C340 -289.5 351.9 -246.7 362.9 -209.5C373.9 -172.3 384 -140.6 398 -106.6C412 -72.6 429.9 -36.3 447.8 0L0 0Z" fill="#eaf3ed"></path><path d="M0 -373.2C34.8 -374.5 69.5 -375.8 96.6 -360.5C123.7 -345.2 143.1 -313.3 171.2 -296.6C199.4 -279.9 236.4 -278.4 259.9 -259.9C283.3 -241.3 293.2 -205.6 302.4 -174.6C311.6 -143.6 320 -117.2 331.6 -88.9C343.3 -60.5 358.2 -30.3 373.2 0L0 0Z" fill="#bfdbc9"></path><path d="M0 -298.5C27.8 -299.6 55.6 -300.6 77.3 -288.4C98.9 -276.1 114.4 -250.6 137 -237.3C159.6 -223.9 189.1 -222.8 207.9 -207.9C226.6 -193 234.6 -164.5 241.9 -139.7C249.2 -114.8 256 -93.7 265.3 -71.1C274.6 -48.4 286.6 -24.2 298.5 0L0 0Z" fill="#95c3a6"></path><path d="M0 -223.9C20.9 -224.7 41.7 -225.5 58 -216.3C74.2 -207.1 85.8 -188 102.7 -178C119.7 -168 141.8 -167.1 155.9 -155.9C170 -144.8 175.9 -123.4 181.4 -104.8C186.9 -86.1 192 -70.3 199 -53.3C206 -36.3 214.9 -18.2 223.9 0L0 0Z" fill="#6aab84"></path><path d="M0 -149.3C13.9 -149.8 27.8 -150.3 38.6 -144.2C49.5 -138.1 57.2 -125.3 68.5 -118.6C79.8 -112 94.6 -111.4 103.9 -103.9C113.3 -96.5 117.3 -82.2 121 -69.8C124.6 -57.4 128 -46.9 132.7 -35.5C137.3 -24.2 143.3 -12.1 149.3 0L0 0Z" fill="#3a9364"></path><path d="M0 -74.6C7 -74.9 13.9 -75.2 19.3 -72.1C24.7 -69 28.6 -62.7 34.2 -59.3C39.9 -56 47.3 -55.7 52 -52C56.7 -48.3 58.6 -41.1 60.5 -34.9C62.3 -28.7 64 -23.4 66.3 -17.8C68.7 -12.1 71.6 -6.1 74.6 0L0 0Z" fill="#198754"></path></g></svg>