<svg id="visual" viewBox="0 0 1320 768" width="1320" height="768" xmlns="http://www.w3.org/2000/svg" xmlns:xlink="http://www.w3.org/1999/xlink" version="1.1"><rect x="0" y="0" width="1320" height="768" fill="#FFFFFF"></rect><defs><linearGradient id="grad1_0" x1="41.8%" y1="100%" x2="100%" y2="0%"><stop offset="15.625%" stop-color="#198754" stop-opacity="1"></stop><stop offset="84.375%" stop-color="#198754" stop-opacity="1"></stop></linearGradient></defs><defs><linearGradient id="grad1_1" x1="41.8%" y1="100%" x2="100%" y2="0%"><stop offset="15.625%" stop-color="#198754" stop-opacity="1"></stop><stop offset="84.375%" stop-color="#539f74" stop-opacity="1"></stop></linearGradient></defs><defs><linearGradient id="grad1_2" x1="41.8%" y1="100%" x2="100%" y2="0%"><stop offset="15.625%" stop-color="#80b795" stop-opacity="1"></stop><stop offset="84.375%" stop-color="#539f74" stop-opacity="1"></stop></linearGradient></defs><defs><linearGradient id="grad1_3" x1="41.8%" y1="100%" x2="100%" y2="0%"><stop offset="15.625%" stop-color="#80b795" stop-opacity="1"></stop><stop offset="84.375%" stop-color="#aacfb7" stop-opacity="1"></stop></linearGradient></defs><defs><linearGradient id="grad1_4" x1="41.8%" y1="100%" x2="100%" y2="0%"><stop offset="15.625%" stop-color="#d4e7db" stop-opacity="1"></stop><stop offset="84.375%" stop-color="#aacfb7" stop-opacity="1"></stop></linearGradient></defs><defs><linearGradient id="grad1_5" x1="41.8%" y1="100%" x2="100%" y2="0%"><stop offset="15.625%" stop-color="#d4e7db" stop-opacity="1"></stop><stop offset="84.375%" stop-color="#ffffff" stop-opacity="1"></stop></linearGradient></defs><defs><linearGradient id="grad2_0" x1="0%" y1="100%" x2="58.2%" y2="0%"><stop offset="15.625%" stop-color="#198754" stop-opacity="1"></stop><stop offset="84.375%" stop-color="#198754" stop-opacity="1"></stop></linearGradient></defs><defs><linearGradient id="grad2_1" x1="0%" y1="100%" x2="58.2%" y2="0%"><stop offset="15.625%" stop-color="#539f74" stop-opacity="1"></stop><stop offset="84.375%" stop-color="#198754" stop-opacity="1"></stop></linearGradient></defs><defs><linearGradient id="grad2_2" x1="0%" y1="100%" x2="58.2%" y2="0%"><stop offset="15.625%" stop-color="#539f74" stop-opacity="1"></stop><stop offset="84.375%" stop-color="#80b795" stop-opacity="1"></stop></linearGradient></defs><defs><linearGradient id="grad2_3" x1="0%" y1="100%" x2="58.2%" y2="0%"><stop offset="15.625%" stop-color="#aacfb7" stop-opacity="1"></stop><stop offset="84.375%" stop-color="#80b795" stop-opacity="1"></stop></linearGradient></defs><defs><linearGradient id="grad2_4" x1="0%" y1="100%" x2="58.2%" y2="0%"><stop offset="15.625%" stop-color="#aacfb7" stop-opacity="1"></stop><stop offset="84.375%" stop-color="#d4e7db" stop-opacity="1"></stop></linearGradient></defs><defs><linearGradient id="grad2_5" x1="0%" y1="100%" x2="58.2%" y2="0%"><stop offset="15.625%" stop-color="#ffffff" stop-opacity="1"></stop><stop offset="84.375%" stop-color="#d4e7db" stop-opacity="1"></stop></linearGradient></defs><g transform="translate(1320, 768)"><path d="M-458.1 0C-455.8 -39.9 -453.4 -79.8 -442.5 -118.6C-431.7 -157.4 -412.5 -195 -386.2 -223C-360 -251 -326.9 -269.3 -301.9 -301.9C-277 -334.6 -260.3 -381.7 -227 -393.2C-193.7 -404.6 -143.9 -380.5 -103.3 -385.4C-62.7 -390.3 -31.3 -424.2 0 -458.1L0 0Z" fill="#eaf3ed"></path><path d="M-381.8 0C-379.8 -33.2 -377.8 -66.5 -368.8 -98.8C-359.8 -131.1 -343.7 -162.5 -321.9 -185.8C-300 -209.1 -272.4 -224.4 -251.6 -251.6C-230.8 -278.8 -216.9 -318.1 -189.2 -327.6C-161.4 -337.2 -119.9 -317.1 -86.1 -321.2C-52.2 -325.2 -26.1 -353.5 0 -381.8L0 0Z" fill="#bfdbc9"></path><path d="M-305.4 0C-303.8 -26.6 -302.2 -53.2 -295 -79.1C-287.8 -104.9 -275 -130 -257.5 -148.7C-240 -167.3 -217.9 -179.5 -201.3 -201.3C-184.7 -223.1 -173.5 -254.5 -151.3 -262.1C-129.1 -269.8 -95.9 -253.7 -68.8 -256.9C-41.8 -260.2 -20.9 -282.8 0 -305.4L0 0Z" fill="#95c3a6"></path><path d="M-229.1 0C-227.9 -19.9 -226.7 -39.9 -221.3 -59.3C-215.9 -78.7 -206.2 -97.5 -193.1 -111.5C-180 -125.5 -163.4 -134.6 -151 -151C-138.5 -167.3 -130.1 -190.9 -113.5 -196.6C-96.9 -202.3 -71.9 -190.3 -51.6 -192.7C-31.3 -195.1 -15.7 -212.1 0 -229.1L0 0Z" fill="#6aab84"></path><path d="M-152.7 0C-151.9 -13.3 -151.1 -26.6 -147.5 -39.5C-143.9 -52.5 -137.5 -65 -128.7 -74.3C-120 -83.7 -109 -89.8 -100.6 -100.6C-92.3 -111.5 -86.8 -127.2 -75.7 -131.1C-64.6 -134.9 -48 -126.8 -34.4 -128.5C-20.9 -130.1 -10.4 -141.4 0 -152.7L0 0Z" fill="#3a9364"></path><path d="M-76.4 0C-76 -6.6 -75.6 -13.3 -73.8 -19.8C-72 -26.2 -68.7 -32.5 -64.4 -37.2C-60 -41.8 -54.5 -44.9 -50.3 -50.3C-46.2 -55.8 -43.4 -63.6 -37.8 -65.5C-32.3 -67.4 -24 -63.4 -17.2 -64.2C-10.4 -65 -5.2 -70.7 0 -76.4L0 0Z" fill="#198754"></path></g><g transform="translate(0, 0)"><path d="M458.1 0C441.7 36.2 425.3 72.5 418.2 112.1C411.2 151.7 413.5 194.6 396.8 229.1C380.1 263.5 344.4 289.6 309 309C273.6 328.5 238.6 341.3 206 356.8C173.4 372.3 143.2 390.3 109.2 407.6C75.3 424.9 37.6 441.5 0 458.1L0 0Z" fill="#eaf3ed"></path><path d="M381.8 0C368.1 30.2 354.4 60.4 348.5 93.4C342.7 126.4 344.6 162.2 330.6 190.9C316.7 219.6 287 241.3 257.5 257.5C228 273.7 198.9 284.5 171.7 297.3C144.5 310.2 119.3 325.3 91 339.7C62.7 354.1 31.4 368 0 381.8L0 0Z" fill="#bfdbc9"></path><path d="M305.4 0C294.5 24.2 283.5 48.3 278.8 74.7C274.1 101.1 275.6 129.7 264.5 152.7C253.4 175.7 229.6 193 206 206C182.4 219 159.1 227.6 137.3 237.9C115.6 248.2 95.4 260.2 72.8 271.7C50.2 283.3 25.1 294.4 0 305.4L0 0Z" fill="#95c3a6"></path><path d="M229.1 0C220.9 18.1 212.7 36.2 209.1 56C205.6 75.8 206.7 97.3 198.4 114.5C190 131.8 172.2 144.8 154.5 154.5C136.8 164.2 119.3 170.7 103 178.4C86.7 186.1 71.6 195.2 54.6 203.8C37.6 212.5 18.8 220.8 0 229.1L0 0Z" fill="#6aab84"></path><path d="M152.7 0C147.2 12.1 141.8 24.2 139.4 37.4C137.1 50.6 137.8 64.9 132.3 76.4C126.7 87.8 114.8 96.5 103 103C91.2 109.5 79.5 113.8 68.7 118.9C57.8 124.1 47.7 130.1 36.4 135.9C25.1 141.6 12.5 147.2 0 152.7L0 0Z" fill="#3a9364"></path><path d="M76.4 0C73.6 6 70.9 12.1 69.7 18.7C68.5 25.3 68.9 32.4 66.1 38.2C63.3 43.9 57.4 48.3 51.5 51.5C45.6 54.7 39.8 56.9 34.3 59.5C28.9 62 23.9 65.1 18.2 67.9C12.5 70.8 6.3 73.6 0 76.4L0 0Z" fill="#198754"></path></g></svg>