<svg id="visual" viewBox="0 0 1360 768" width="1360" height="768" xmlns="http://www.w3.org/2000/svg" xmlns:xlink="http://www.w3.org/1999/xlink" version="1.1"><rect x="0" y="0" width="1360" height="768" fill="#FFFFFF"></rect><defs><linearGradient id="grad1_0" x1="43.5%" y1="100%" x2="100%" y2="0%"><stop offset="14.583333333333334%" stop-color="#198754" stop-opacity="1"></stop><stop offset="85.41666666666667%" stop-color="#198754" stop-opacity="1"></stop></linearGradient></defs><defs><linearGradient id="grad1_1" x1="43.5%" y1="100%" x2="100%" y2="0%"><stop offset="14.583333333333334%" stop-color="#198754" stop-opacity="1"></stop><stop offset="85.41666666666667%" stop-color="#539f74" stop-opacity="1"></stop></linearGradient></defs><defs><linearGradient id="grad1_2" x1="43.5%" y1="100%" x2="100%" y2="0%"><stop offset="14.583333333333334%" stop-color="#80b795" stop-opacity="1"></stop><stop offset="85.41666666666667%" stop-color="#539f74" stop-opacity="1"></stop></linearGradient></defs><defs><linearGradient id="grad1_3" x1="43.5%" y1="100%" x2="100%" y2="0%"><stop offset="14.583333333333334%" stop-color="#80b795" stop-opacity="1"></stop><stop offset="85.41666666666667%" stop-color="#aacfb7" stop-opacity="1"></stop></linearGradient></defs><defs><linearGradient id="grad1_4" x1="43.5%" y1="100%" x2="100%" y2="0%"><stop offset="14.583333333333334%" stop-color="#d4e7db" stop-opacity="1"></stop><stop offset="85.41666666666667%" stop-color="#aacfb7" stop-opacity="1"></stop></linearGradient></defs><defs><linearGradient id="grad1_5" x1="43.5%" y1="100%" x2="100%" y2="0%"><stop offset="14.583333333333334%" stop-color="#d4e7db" stop-opacity="1"></stop><stop offset="85.41666666666667%" stop-color="#ffffff" stop-opacity="1"></stop></linearGradient></defs><defs><linearGradient id="grad2_0" x1="0%" y1="100%" x2="56.5%" y2="0%"><stop offset="14.583333333333334%" stop-color="#198754" stop-opacity="1"></stop><stop offset="85.41666666666667%" stop-color="#198754" stop-opacity="1"></stop></linearGradient></defs><defs><linearGradient id="grad2_1" x1="0%" y1="100%" x2="56.5%" y2="0%"><stop offset="14.583333333333334%" stop-color="#539f74" stop-opacity="1"></stop><stop offset="85.41666666666667%" stop-color="#198754" stop-opacity="1"></stop></linearGradient></defs><defs><linearGradient id="grad2_2" x1="0%" y1="100%" x2="56.5%" y2="0%"><stop offset="14.583333333333334%" stop-color="#539f74" stop-opacity="1"></stop><stop offset="85.41666666666667%" stop-color="#80b795" stop-opacity="1"></stop></linearGradient></defs><defs><linearGradient id="grad2_3" x1="0%" y1="100%" x2="56.5%" y2="0%"><stop offset="14.583333333333334%" stop-color="#aacfb7" stop-opacity="1"></stop><stop offset="85.41666666666667%" stop-color="#80b795" stop-opacity="1"></stop></linearGradient></defs><defs><linearGradient id="grad2_4" x1="0%" y1="100%" x2="56.5%" y2="0%"><stop offset="14.583333333333334%" stop-color="#aacfb7" stop-opacity="1"></stop><stop offset="85.41666666666667%" stop-color="#d4e7db" stop-opacity="1"></stop></linearGradient></defs><defs><linearGradient id="grad2_5" x1="0%" y1="100%" x2="56.5%" y2="0%"><stop offset="14.583333333333334%" stop-color="#ffffff" stop-opacity="1"></stop><stop offset="85.41666666666667%" stop-color="#d4e7db" stop-opacity="1"></stop></linearGradient></defs><g transform="translate(1360, 768)"><path d="M-460.8 0C-461.8 -42.6 -462.8 -85.2 -445.1 -119.3C-427.4 -153.4 -390.9 -179 -370.7 -214C-350.4 -249 -346.3 -293.3 -323.1 -323.1C-300 -353 -257.8 -368.3 -219.5 -380.2C-181.2 -392.1 -146.7 -400.6 -110.8 -413.4C-74.8 -426.3 -37.4 -443.5 0 -460.8L0 0Z" fill="#eaf3ed"></path><path d="M-384 0C-384.8 -35.5 -385.7 -71 -370.9 -99.4C-356.1 -127.8 -325.8 -149.2 -308.9 -178.3C-292 -207.5 -288.6 -244.4 -269.3 -269.3C-250 -294.1 -214.9 -306.9 -182.9 -316.8C-151 -326.7 -122.3 -333.8 -92.3 -344.5C-62.4 -355.2 -31.2 -369.6 0 -384L0 0Z" fill="#bfdbc9"></path><path d="M-307.2 0C-307.9 -28.4 -308.5 -56.8 -296.7 -79.5C-284.9 -102.2 -260.6 -119.3 -247.1 -142.7C-233.6 -166 -230.9 -195.5 -215.4 -215.4C-200 -235.3 -171.9 -245.5 -146.3 -253.5C-120.8 -261.4 -97.8 -267 -73.8 -275.6C-49.9 -284.2 -24.9 -295.7 0 -307.2L0 0Z" fill="#95c3a6"></path><path d="M-230.4 0C-230.9 -21.3 -231.4 -42.6 -222.5 -59.6C-213.7 -76.7 -195.5 -89.5 -185.3 -107C-175.2 -124.5 -173.1 -146.7 -161.6 -161.6C-150 -176.5 -128.9 -184.1 -109.8 -190.1C-90.6 -196 -73.4 -200.3 -55.4 -206.7C-37.4 -213.1 -18.7 -221.8 0 -230.4L0 0Z" fill="#6aab84"></path><path d="M-153.6 0C-153.9 -14.2 -154.3 -28.4 -148.4 -39.8C-142.5 -51.1 -130.3 -59.7 -123.6 -71.3C-116.8 -83 -115.4 -97.8 -107.7 -107.7C-100 -117.7 -85.9 -122.8 -73.2 -126.7C-60.4 -130.7 -48.9 -133.5 -36.9 -137.8C-24.9 -142.1 -12.5 -147.8 0 -153.6L0 0Z" fill="#3a9364"></path><path d="M-76.8 0C-77 -7.1 -77.1 -14.2 -74.2 -19.9C-71.2 -25.6 -65.2 -29.8 -61.8 -35.7C-58.4 -41.5 -57.7 -48.9 -53.9 -53.9C-50 -58.8 -43 -61.4 -36.6 -63.4C-30.2 -65.3 -24.5 -66.8 -18.5 -68.9C-12.5 -71 -6.2 -73.9 0 -76.8L0 0Z" fill="#198754"></path></g><g transform="translate(0, 0)"><path d="M460.8 0C426.7 33.3 392.5 66.7 378.6 101.5C364.8 136.2 371.1 172.5 366.3 211.5C361.6 250.5 345.7 292.4 317.5 317.5C289.3 342.6 248.8 351 215 372.4C181.2 393.8 154 428.2 119.3 445.1C84.5 462 42.3 461.4 0 460.8L0 0Z" fill="#eaf3ed"></path><path d="M384 0C355.6 27.8 327.1 55.6 315.5 84.5C304 113.5 309.2 143.7 305.3 176.2C301.3 208.8 288.1 243.6 264.6 264.6C241.1 285.5 207.4 292.5 179.2 310.3C151 328.2 128.3 356.8 99.4 370.9C70.4 385 35.2 384.5 0 384L0 0Z" fill="#bfdbc9"></path><path d="M307.2 0C284.4 22.2 261.7 44.5 252.4 67.6C243.2 90.8 247.4 115 244.2 141C241 167 230.4 194.9 211.7 211.7C192.9 228.4 165.9 234 143.3 248.3C120.8 262.5 102.7 285.5 79.5 296.7C56.4 308 28.2 307.6 0 307.2L0 0Z" fill="#95c3a6"></path><path d="M230.4 0C213.3 16.7 196.3 33.3 189.3 50.7C182.4 68.1 185.5 86.2 183.2 105.7C180.8 125.3 172.8 146.2 158.7 158.7C144.7 171.3 124.4 175.5 107.5 186.2C90.6 196.9 77 214.1 59.6 222.5C42.3 231 21.1 230.7 0 230.4L0 0Z" fill="#6aab84"></path><path d="M153.6 0C142.2 11.1 130.8 22.2 126.2 33.8C121.6 45.4 123.7 57.5 122.1 70.5C120.5 83.5 115.2 97.5 105.8 105.8C96.4 114.2 82.9 117 71.7 124.1C60.4 131.3 51.3 142.7 39.8 148.4C28.2 154 14.1 153.8 0 153.6L0 0Z" fill="#3a9364"></path><path d="M76.8 0C71.1 5.6 65.4 11.1 63.1 16.9C60.8 22.7 61.8 28.7 61.1 35.2C60.3 41.8 57.6 48.7 52.9 52.9C48.2 57.1 41.5 58.5 35.8 62.1C30.2 65.6 25.7 71.4 19.9 74.2C14.1 77 7 76.9 0 76.8L0 0Z" fill="#198754"></path></g></svg>